<svg xmlns="http://www.w3.org/2000/svg" width="128" height="46" viewBox="0 0 128 46">
	<g fill="none" fill-rule="evenodd">
		<path fill="#FFF" d="M5.455 27.21l9.586 12.658v-10.29c0-.303-.027-.909-.607-1.348-.413-.302-1.13-.494-1.762-.467v-.552h5.315v.552c-1.076-.027-1.653.248-1.956.66-.44.55-.41 1.294-.41 1.815v15.298h-.197L3.723 29.966v12.242c.08 2.008 1.014 2.285 2.393 2.477v.55H.774v-.55c.853.083 1.54-.192 1.953-.717.416-.55.416-1.237.416-1.76V29.195c0-1.02-1.268-1.432-2.067-1.432v-.552h4.38M26.146 31.752l-2.7 6.825h5.07l-2.37-6.825zm-3.828 9.822c-.192.442-.52 1.458-.52 2.011 0 .52.218.741.741.933.302.083.718.14 1.017.167v.55h-4.678v-.55a2.844 2.844 0 0 0 1.621-.798c.332-.359.553-.855.634-1.076l6.087-15.6h.497l6.278 17.474h1.875v.55h-7.576v-.55h2.452l-2.037-5.56h-5.401l-.99 2.45zM41.962 27.763c-.58 0-1.516.027-2.04.108-1.322.194-2.174.855-2.698 1.599-.663 1.016-.992 2.53-1.073 3.412h-.772l.138-5.671h15.975l.135 5.67h-.77c-.083-.468-.304-2.285-1.073-3.411-.524-.774-1.406-1.405-2.369-1.599-.359-.08-.855-.08-2.369-.108v16.922h2.12v.55H39.84v-.55h2.123V27.763M60.722 27.21v.553H58.6v12.879c0 .96.057 1.647.799 2.501.58.744 1.767 1.569 3.858 1.569 2.067 0 3.194-.744 3.718-1.264 1.32-1.27 1.268-2.836 1.268-3.828v-9.932c0-.852-.332-1.24-.556-1.429-.41-.331-.99-.415-1.843-.496v-.552h5.37v.552c-.853.027-1.539-.027-2.008.604-.194.191-.386.66-.386 1.87V40.2c0 1.237-.275 2.584-1.57 3.768-1.074.989-2.7 1.568-4.463 1.568-1.322 0-2.808-.248-3.882-.66-1.325-.523-2.369-1.428-2.895-2.393a5.36 5.36 0 0 1-.494-2.283V27.763H53.4v-.552h7.323M80.393 35.44c1.187 0 2.563-.138 3.556-1.21.688-.742.853-1.626.853-3.027 0-1.238-.302-2.337-1.322-2.917-.715-.415-2.342-.523-2.92-.523h-2.093v7.677h1.926zm.335-8.23c2.752 0 4.379.198 5.506.828.664.359 2.037 1.294 2.037 3.192 0 1.32-.493 2.283-1.349 2.973-1.211.989-3.194 1.347-4.295 1.428v.108c.963.14 2.92.717 3.802 1.598.88.825 1.044 1.847 1.154 2.89.305 2.504.305 3.053.526 3.687.108.302.249.633.686.633.523 0 1.211-.633 1.46-.938l.415.442c-1.023 1.458-2.15 1.485-2.92 1.485-.744 0-1.764-.083-2.509-1.043-.577-.797-.658-2.037-.768-3.11-.222-1.981-.36-3.99-1.323-4.79-.66-.547-1.597-.603-2.45-.603h-2.233v8.695h2.123v.55h-7.328v-.55h2.12V27.763h-2.12v-.552h7.466zM106.459 27.21l.3 5.203h-.659c-.194-1.073-.607-2.367-1.05-3.027-.768-1.127-1.87-1.623-3.496-1.623h-3.47v7.566h.99c.524 0 1.875.057 2.536-1.485.249-.553.36-1.294.44-1.817h.55v7.208h-.55c-.08-.302-.191-1.402-.413-1.898-.523-1.32-1.624-1.458-2.398-1.458h-1.155v8.806h3.937c.469 0 2.341-.084 3.583-1.733.466-.634.855-1.599 1.154-3.332h.664l-.58 5.615H92.877v-.55H95V27.763h-2.123v-.552h13.582M117.591 27.21v.553h-2.123v16.922h3.194c.443 0 1.902-.11 3.278-1.485a8.874 8.874 0 0 0 2.178-3.688h.523l-.855 5.723h-13.523v-.55h2.123V27.763h-2.123v-.552h7.328"></path>
		<path fill="#3AAB47" d="M89.92 8.211c.653 0 1.144.116 1.47.348.327.232.489.585.489 1.06 0 .62-.232 1.22-.696 1.8-.443.547-1.107.989-1.992 1.326-.483.178-.89.267-1.216.267-.443 0-.664-.194-.664-.582 0-.265.127-.464.38-.601.062-.033.421-.122 1.074-.27a2.36 2.36 0 0 0 1.074-.553c.286-.242.429-.504.429-.79 0-.22-.065-.382-.192-.487-.126-.108-.315-.16-.569-.16-.61 0-1.284.249-2.023.742-.853.558-1.28 1.221-1.28 1.992 0 .547.279 1.232.837 2.051.623.898.934 1.655.934 2.278 0 .924-.41 1.652-1.233 2.177-.505.327-1.08.491-1.724.491-1.012 0-1.781-.364-2.307-1.089-.37-.517-.553-1.127-.553-1.833 0-.822.21-1.512.631-2.07.275-.369.558-.552.855-.552.262 0 .394.105.394.315 0 .084-.048.21-.143.38-.243.45-.361.984-.361 1.596 0 .515.183.951.553 1.31.326.315.699.474 1.122.474.41 0 .731-.137.963-.41.19-.231.286-.528.286-.886 0-.442-.253-1.017-.76-1.723-.697-.967-1.042-1.846-1.042-2.636 0-1.054.572-1.986 1.721-2.795 1.117-.779 2.3-1.17 3.543-1.17M96.687 8.527a25.873 25.873 0 0 0-1.9 3.568c-.83 1.876-1.246 3.278-1.246 4.205 0 .262.054.461.164.598.11.138.278.205.5.205.525 0 1.162-.493 1.912-1.482.472-.612.896-1.224 1.263-1.836.202-.345.418-.52.65-.52.135 0 .251.049.348.143a.427.427 0 0 1 .124.283c0 .39-.51 1.259-1.532 2.61-1.222 1.619-2.34 2.43-3.351 2.43-.537 0-.985-.248-1.344-.74-.221-.319-.332-.766-.332-1.346 0-1.272.367-2.757 1.107-4.453.178-.423.674-1.439 1.486-3.048-.286.073-.502.11-.65.11-.221 0-.416-.053-.583-.159-.232-.148-.348-.331-.348-.552 0-.264.151-.474.459-.63.083-.044.472-.111 1.168-.206a8.3 8.3 0 0 0 1.106-.302c.37-.663.972-1.563 1.803-2.7.464-.631.785-1.04.965-1.232.254-.262.475-.394.664-.394.138 0 .273.073.41.221.127.138.192.273.192.41 0 .275-.297.817-.888 1.628-.388.526-.68.952-.869 1.278 1.171-.316 2.008-.475 2.515-.475.58 0 .869.243.869.728 0 .243-.1.42-.3.536-.105.065-.38.116-.823.16-.178-.011-.974.188-2.387.598a35.96 35.96 0 0 0-1.152.364M103.213 16.284c-.45.63-.852 1.137-1.2 1.515-.61.674-1.217 1.01-1.819 1.01-.515 0-.917-.231-1.2-.695-.2-.326-.3-.714-.3-1.167 0-1.358.58-2.92 1.737-4.676.537-.823 1.072-1.448 1.598-1.88.41-.347.747-.522 1.011-.522.149 0 .284.065.41.191.106.116.16.232.16.345 0 .203-.195.529-.586.981-.874 1.044-1.538 2-1.99 2.874-.527 1.024-.791 1.822-.791 2.401 0 .148.035.259.102.337.068.081.167.121.291.121.54 0 1.287-.768 2.245-2.307.497-.8.923-1.684 1.282-2.652.189-.526.437-.995.742-1.407.297-.367.585-.552.871-.552.157 0 .3.07.427.204a.706.706 0 0 1 .205.49c0 .381-.365 1.233-1.09 2.559-.497.916-.745 1.682-.745 2.29 0 .656.175 1.214.523 1.677.095.124.383.326.87.599.231.137.347.358.347.663 0 .191-.08.353-.245.49a.888.888 0 0 1-.594.205c-.526 0-1.006-.21-1.438-.63-.389-.38-.637-.928-.742-1.645-.022-.094-.049-.366-.08-.82M113.047 10.77c-.283-.19-.531-.284-.741-.284-.888 0-1.725.542-2.515 1.626-1.044 1.412-1.565 2.776-1.565 4.091 0 .16.032.307.095.442.126.264.315.396.569.396.37 0 .817-.358 1.343-1.072.707-.95 1.36-2.073 1.962-3.367.21-.442.415-.884.615-1.326l.143-.302.094-.205zm.537-1.295c1.055-2.202 2.05-4.118 2.99-5.749.906-1.58 1.521-2.574 1.848-2.983.359-.453.696-.68 1.012-.68.17 0 .32.068.458.205a.638.638 0 0 1 .19.442c0 .243-.179.647-.538 1.216a96.01 96.01 0 0 0-4.203 7.501c-1.476 2.96-2.215 5.175-2.215 6.652 0 .598.116 1.073.348 1.42.043.073.232.243.569.505.065.053.094.159.094.318 0 .21-.08.398-.245.571-.162.175-.343.264-.545.264-.243 0-.51-.148-.804-.442a2.573 2.573 0 0 1-.76-1.453c-.03-.231-.068-.663-.112-1.293-1.106 1.989-2.16 2.983-3.162 2.983-.577 0-1.041-.326-1.39-.978a3.06 3.06 0 0 1-.347-1.47c0-1.643.599-3.295 1.802-4.961 1.19-1.642 2.472-2.464 3.842-2.464.378 0 .77.132 1.168.396zM122.817 3.379c.475 0 .712.242.712.727 0 .442-.232.93-.696 1.47-.442.514-.869.773-1.281.773a.62.62 0 0 1-.489-.221.722.722 0 0 1-.191-.507c0-.504.28-1.043.839-1.612.41-.42.78-.63 1.106-.63zm-3.003 5.86c.178 0 .327.067.443.204a.594.594 0 0 1 .126.348c0 .188-.153.504-.458.949-1.096 1.692-1.875 3.088-2.34 4.183a35.33 35.33 0 0 0-1.313 3.477c-.168.525-.432.79-.79.79a.597.597 0 0 1-.505-.254.672.672 0 0 1-.176-.442c0-.315.337-1.37 1.012-3.159.529-1.412 1.381-2.97 2.563-4.676.378-.558.664-.93.853-1.122.189-.199.385-.299.585-.299zM124.398 14.48c-.264-.21-.394-.371-.394-.487 0-.086.167-.318.505-.696.95-1.064 1.422-1.921 1.422-2.574a.457.457 0 0 0-.079-.253.416.416 0 0 0-.394-.237c-.337 0-.833.326-1.486.978-.845.844-1.487 1.712-1.93 2.607-.515 1.021-.774 1.87-.774 2.544 0 .178.046.337.143.474.135.19.31.283.521.283.505 0 1.05-.377 1.627-1.137a4.9 4.9 0 0 0 .618-.978c.16-.337.232-.513.221-.523zm1.643-5.97c.866 0 1.298.529 1.298 1.58 0 1.402-.648 3.175-1.945 5.323-1.411 2.33-2.777 3.49-4.093 3.49-.613 0-1.06-.282-1.344-.851-.148-.286-.221-.625-.221-1.027 0-1.348.461-2.811 1.39-4.39.863-1.464 1.88-2.602 3.05-3.413.686-.474 1.307-.711 1.865-.711z"></path>
	</g>
</svg>